<svg version="1.1" id="Layer_1" xmlns="http://www.w3.org/2000/svg" xmlns:xlink="http://www.w3.org/1999/xlink" x="0" y="0" viewBox="0 0 18 19" xml:space="preserve" enable-background="new 0 0 18 19">
  <g id="Symbols">
    <g id="Link_x2F_Orange-Underline" transform="translate(-59.000000, -3.000000)">
      <path id="Icon-Rightt" class="st0" d="M68,21.5c-5,0-9-4-9-9c0-5,4-9,9-9c5,0,9,4,9,9C77,17.5,73,21.5,68,21.5z M68.9,17.4
			c0.2,0,0.3-0.1,0.4-0.2l0.5-0.5c0.1-0.1,0.2-0.2,0.2-0.4s0-0.3-0.1-0.4l-3.5-3.5L69.9,9C70,8.9,70,8.8,70,8.7s-0.1-0.3-0.2-0.4
			l-0.5-0.5c-0.1-0.1-0.2-0.2-0.4-0.2c-0.2,0-0.3,0.1-0.4,0.2l-4.4,4.3c-0.1,0.1-0.2,0.2-0.2,0.4s0.1,0.3,0.2,0.4l4.4,4.3
			C68.7,17.3,68.8,17.4,68.9,17.4z"/>
    </g>
  </g>
</svg>
