<svg viewBox="0 0 18 19" version="1.1" xmlns="http://www.w3.org/2000/svg" xmlns:xlink="http://www.w3.org/1999/xlink">
  <title>Icon Right</title>
  <g id="Symbols" stroke="none" stroke-width="1" fill="none" fill-rule="evenodd">
    <g id="Link/Orange-Underline" transform="translate(-59.000000, -3.000000)" fill="#000">
      <path d="M68,3.5 C72.9705627,3.5 77,7.52943725 77,12.5 C77,17.4705627 72.9705627,21.5 68,21.5 C63.0294373,21.5 59,17.4705627 59,12.5 C59,7.52943725 63.0294373,3.5 68,3.5 Z M67.0514687,7.625 C66.9008284,7.625 66.7727844,7.67717879 66.6673362,7.7815367 L66.1702234,8.27350917 C66.0647752,8.37786709 66.0082851,8.50458704 66.0007532,8.65366972 C65.9932213,8.80275241 66.0421791,8.92947236 66.1476274,9.03383028 L69.6500125,12.5 L66.1476274,15.9661697 C66.0421791,16.0705276 65.9932213,16.1972476 66.0007532,16.3463303 C66.0082851,16.495413 66.0647752,16.6221329 66.1702234,16.7264908 L66.6673362,17.2184633 C66.7727844,17.3228212 66.9008284,17.375 67.0514687,17.375 C67.2021091,17.375 67.330153,17.3228212 67.4356013,17.2184633 L71.8192317,12.8801606 C71.9397438,12.7758026 72,12.6490827 72,12.5 C72,12.3509173 71.9397438,12.2241974 71.8192317,12.1198394 L67.4356013,7.7815367 C67.330153,7.67717879 67.2021091,7.625 67.0514687,7.625 Z" id="Icon-Rightt"/>
    </g>
  </g>
</svg>
