<svg viewBox="0 0 13 21" fill="none" xmlns="http://www.w3.org/2000/svg">
  <path d="M1.73242 0.777183C1.82227 0.685493 1.91211 0.639648 2.0918 0.639648C2.22656 0.639648 2.36133 0.685493 2.49609 0.777183L11.8848 10.4046C11.9746 10.4963 12.0645 10.6338 12.0645 10.7714C12.0645 10.9547 11.9746 11.0464 11.8848 11.1381L2.49609 20.7655C2.36133 20.8572 2.22656 20.9031 2.0918 20.9031C1.91211 20.9031 1.82227 20.8572 1.73242 20.7655L0.833984 19.8486C0.699219 19.757 0.654297 19.6653 0.654297 19.4819C0.654297 19.3444 0.699219 19.2068 0.833984 19.0693L8.96484 10.7714L0.833984 2.47344C0.699219 2.38175 0.654297 2.24422 0.654297 2.06084C0.654297 1.9233 0.699219 1.78577 0.833984 1.69408L1.73242 0.777183Z" fill="#FFFBEF"/>
</svg>
